PathFileType	4	(X/Y/Z)	C:\Users\Willi\Documents\Github\OpenSimMatlabBasic\ExampleData\Trials\dynamic06\marker_experimental.trc
DataRate	CameraRate	NumFrames	NumMarkers	Units	OrigDataRate	OrigDataStartFrame	OrigNumFrames
150.000000	150.000000	2	179	mm	150.000000	0	330
Frame#	Time	LFHD			LBHD			RFHD			RBHD			C7			T10			CLAV			STRN			RBAK			LSHO			LUPA			LELB			LFRA			LWRB			LWRA			LFIN			RSHO			RUPA			RELB			RFRA			RWRB			RFIN			SACR			LASI			RASI			LT1			LT2			LT3			LS1			LS2			LS3			LHEE			LTOE			RT1			RT2			RT3			RS1			RS2			RS3			RHEE			RTOE			SACO			SACA			SACL			SACP			RWRA			LM5D			RM5D			LKNE			RKNE			LANK			RANK			LKJC			RKJC			LAJC			RAJC			LTHI			RTHI			LTIB			RTIB			P_ForcePlate1			P_ForcePlate2			P_ForcePlate3			funktRKJC			funktLKJC			funktRHIP			funktLHIP			LHJC			RHJC			LKNEshank			RKNEshank			LKJCshank			RKJCshank			LHF			COP_FP1			VECTIP_FP1			RawCentreFP1			COP_FP2			VECTIP_FP2			RawCentreFP2			COP_FP3			VECTIP_FP3			RawCentreFP3			LPelvisAngles			RPelvisAngles			LFootProgressAngles			RFootProgressAngles			LHipAngles			RHipAngles			LKneeAngles			RKneeAngles			LAnkleAngles			RAnkleAngles			LFFootAngles			RFFootAngles			LAbsAnkleAngle			RAbsAnkleAngle			RNeckAngles			LNeckAngles			RSpineAngles			LSpineAngles			LShoulderAngles			LElbowAngles			LWristAngles			RShoulderAngles			RElbowAngles			RWristAngles			RThoraxAngles			LThoraxAngles			RHeadAngles			LHeadAngles			LHipPower			LKneePower			LAnklePower			RHipPower			RKneePower			RAnklePower			LWaistPower			RWaistPower			LNeckPower			RNeckPower			LShoulderPower			RShoulderPower			LElbowPower			RElbowPower			LWristPower			RWristPower			F_ForcePlate1			F_ForcePlate2			F_ForcePlate3			LHipForce			RHipForce			LKneeForce			RKneeForce			LAnkleForce			RAnkleForce			LNormalisedGRF			RNormalisedGRF			LGroundReactionForce			RGroundReactionForce			LGRF			RGRF			LWaistForce			RWaistForce			LNeckForce			RNeckForce			LShoulderForce			RShoulderForce			LElbowForce			RElbowForce			LWristForce			RWristForce			Force_FP1			RawForceFP1			Force_FP2			RawForceFP2			Force_FP3			RawForceFP3			LHipMoment			RHipMoment			LKneeMoment			RKneeMoment			LAnkleMoment			RAnkleMoment			LGroundReactionMoment			RGroundReactionMoment			LWaistMoment			RWaistMoment			LNeckMoment			RNeckMoment			LShoulderMoment			RShoulderMoment			LElbowMoment			RElbowMoment			LWristMoment			RWristMoment			RawMomentFP1			RawMomentFP2			RawMomentFP3			
		X1	Y1	Z1	X2	Y2	Z2	X3	Y3	Z3	X4	Y4	Z4	X5	Y5	Z5	X6	Y6	Z6	X7	Y7	Z7	X8	Y8	Z8	X9	Y9	Z9	X10	Y10	Z10	X11	Y11	Z11	X12	Y12	Z12	X13	Y13	Z13	X14	Y14	Z14	X15	Y15	Z15	X16	Y16	Z16	X17	Y17	Z17	X18	Y18	Z18	X19	Y19	Z19	X20	Y20	Z20	X21	Y21	Z21	X22	Y22	Z22	X23	Y23	Z23	X24	Y24	Z24	X25	Y25	Z25	X26	Y26	Z26	X27	Y27	Z27	X28	Y28	Z28	X29	Y29	Z29	X30	Y30	Z30	X31	Y31	Z31	X32	Y32	Z32	X33	Y33	Z33	X34	Y34	Z34	X35	Y35	Z35	X36	Y36	Z36	X37	Y37	Z37	X38	Y38	Z38	X39	Y39	Z39	X40	Y40	Z40	X41	Y41	Z41	X42	Y42	Z42	X43	Y43	Z43	X44	Y44	Z44	X45	Y45	Z45	X46	Y46	Z46	X47	Y47	Z47	X48	Y48	Z48	X49	Y49	Z49	X50	Y50	Z50	X51	Y51	Z51	X52	Y52	Z52	X53	Y53	Z53	X54	Y54	Z54	X55	Y55	Z55	X56	Y56	Z56	X57	Y57	Z57	X58	Y58	Z58	X59	Y59	Z59	X60	Y60	Z60	X61	Y61	Z61	X62	Y62	Z62	X63	Y63	Z63	X64	Y64	Z64	X65	Y65	Z65	X66	Y66	Z66	X67	Y67	Z67	X68	Y68	Z68	X69	Y69	Z69	X70	Y70	Z70	X71	Y71	Z71	X72	Y72	Z72	X73	Y73	Z73	X74	Y74	Z74	X75	Y75	Z75	X76	Y76	Z76	X77	Y77	Z77	X78	Y78	Z78	X79	Y79	Z79	X80	Y80	Z80	X81	Y81	Z81	X82	Y82	Z82	X83	Y83	Z83	X84	Y84	Z84	X85	Y85	Z85	X86	Y86	Z86	X87	Y87	Z87	X88	Y88	Z88	X89	Y89	Z89	X90	Y90	Z90	X91	Y91	Z91	X92	Y92	Z92	X93	Y93	Z93	X94	Y94	Z94	X95	Y95	Z95	X96	Y96	Z96	X97	Y97	Z97	X98	Y98	Z98	X99	Y99	Z99	X100	Y100	Z100	X101	Y101	Z101	X102	Y102	Z102	X103	Y103	Z103	X104	Y104	Z104	X105	Y105	Z105	X106	Y106	Z106	X107	Y107	Z107	X108	Y108	Z108	X109	Y109	Z109	X110	Y110	Z110	X111	Y111	Z111	X112	Y112	Z112	X113	Y113	Z113	X114	Y114	Z114	X115	Y115	Z115	X116	Y116	Z116	X117	Y117	Z117	X118	Y118	Z118	X119	Y119	Z119	X120	Y120	Z120	X121	Y121	Z121	X122	Y122	Z122	X123	Y123	Z123	X124	Y124	Z124	X125	Y125	Z125	X126	Y126	Z126	X127	Y127	Z127	X128	Y128	Z128	X129	Y129	Z129	X130	Y130	Z130	X131	Y131	Z131	X132	Y132	Z132	X133	Y133	Z133	X134	Y134	Z134	X135	Y135	Z135	X136	Y136	Z136	X137	Y137	Z137	X138	Y138	Z138	X139	Y139	Z139	X140	Y140	Z140	X141	Y141	Z141	X142	Y142	Z142	X143	Y143	Z143	X144	Y144	Z144	X145	Y145	Z145	X146	Y146	Z146	X147	Y147	Z147	X148	Y148	Z148	X149	Y149	Z149	X150	Y150	Z150	X151	Y151	Z151	X152	Y152	Z152	X153	Y153	Z153	X154	Y154	Z154	X155	Y155	Z155	X156	Y156	Z156	X157	Y157	Z157	X158	Y158	Z158	X159	Y159	Z159	X160	Y160	Z160	X161	Y161	Z161	X162	Y162	Z162	X163	Y163	Z163	X164	Y164	Z164	X165	Y165	Z165	X166	Y166	Z166	X167	Y167	Z167	X168	Y168	Z168	X169	Y169	Z169	X170	Y170	Z170	X171	Y171	Z171	X172	Y172	Z172	X173	Y173	Z173	X174	Y174	Z174	X175	Y175	Z175	X176	Y176	Z176	X177	Y177	Z177	X178	Y178	Z178	X179	Y179	Z179	

1	0	-1253.5732421875	1294.619384765625	286.6583862304685	-1378.654296875	1287.104858398438	250.4146881103513	-1258.968627929688	1288.865966796875	400.7991027832029	-1396.854125976562	1288.77783203125	417.3585205078123	-1431.633544921875	1144.973388671875	340.043273925781	-1460.056640625	996.2162475585938	346.3851318359373	-1318.779052734375	1102.240844726562	321.8989562988279	-1292.0419921875	1047.645751953125	319.9189147949216	-1447.094360351562	1072.66845703125	429.9739685058591	-1410.656860351562	1117.865478515625	199.333541870117	-1461.156982421875	923.8151245117188	166.2450103759763	-1463.939697265625	860.0194091796875	154.2440948486326	-1464.246948242188	786.8168334960938	138.9542083740232	-1440.93994140625	663.2587280273438	126.2528228759763	-1376.499877929688	672.0870361328125	97.22996520996072	-1395.480590820312	615.2233276367188	73.02600860595682	-1370.024780273438	1123.984375	467.2452392578123	-1393.569580078125	1026.100463867188	519.1418457031247	-1415.716796875	873.1139526367188	559.2205810546873	-1348.727783203125	736.16259765625	562.6063232421874	-1327.074096679688	700.39892578125	563.2201538085936	-1243.521118164062	667.720947265625	570.6425781249999	-1453.898193359375	799.6499633789062	346.927307128906	-1322.446899414062	759.901123046875	235.4709625244138	-1321.817504882812	757.6029052734375	463.1001281738279	-1351.929931640625	561.5081176757812	203.3198394775389	-1402.346557617188	451.9070129394531	228.6110076904295	-1337.871826171875	462.0598754882812	221.8649597167967	-1392.345458984375	232.7316436767578	230.2301940917967	-1482.561645507812	154.1578674316407	258.5904235839842	-1339.57373046875	150.9986267089844	244.531295776367	-1439.5859375	53.91485214233401	322.4774780273436	-1291.172607421875	49.07784652709962	280.7389221191405	-1306.473266601562	552.15087890625	492.0920410156248	-1318.792358398438	437.6436767578126	473.0358276367186	-1271.695190429688	456.3677062988282	479.3135986328123	-1403.451171875	301.3453979492188	475.8836059570311	-1525.362670898438	305.5283203125	452.2521362304686	-1420.8935546875	206.0252990722657	459.0021667480467	-1566.157958984375	211.0091552734375	386.9340209960936	-1478.58056640625	88.05158233642581	415.5548095703123	-1419.533081054688	788.9622192382812	349.8598632812498	-1414.6630859375	787.4517211914062	349.831115722656	-1419.547241210938	789.013671875	344.7611389160154	-1404.425903320312	837.6607666015625	350.3094787597654	-1263.808349609375	734.0497436523438	546.7509765624999	-1308.173461914062	25.67133522033693	248.3649597167967	-1502.671020507812	91.97033691406253	444.7146606445311	-1360.092651367188	397.0215759277344	238.7379302978514	-1266.427734375	399.0764160156251	468.0982055664061	-1405.19287109375	55.88388442993165	275.5692443847655	-1535.490112304688	188.8963317871094	433.374786376953	-1357.524658203125	395.152587890625	290.8865661621092	-1266.712768554688	393.976806640625	415.5783386230467	-1387.760620117188	67.11923217773439	309.0550231933592	-1515.8310546875	181.1163177490235	400.0387573242186	-1368.659301757812	549.7315673828125	202.6774291992186	-1317.177734375	552.1819458007812	504.3160400390623	-1413.970092773438	215.4659881591797	217.8737487792967	-1434.153076171875	309.1937561035157	487.0995178222655	256.7200012207031	0.07899999618532701	396.4200134277344	-254.2699890136719	-0.2560999989509441	231.3000030517578	-950.1600341796875	1.404999971389795	394.6300048828124	0	0	0	0	0	0	0	0	0	0	0	0	-1370.898681640625	700.6071166992188	297.7091369628904	-1371.2353515625	699.0780029296875	399.677307128906	-1358.012817382812	405.1783142089844	239.9138488769529	-1259.145385742188	389.9601745605469	465.7099609374998	-1356.55224609375	404.2921752929688	292.1311645507811	-1260.612426757812	388.6189270019531	412.9804687499998	-0.1140409037470818	1.423613667488098	-0.01541056949645291	256.7200012207031	0.07899999618532701	396.4200134277344	256.7200012207031	0.07899999618532701	396.4200134277344	256.7200012207031	0.07899999618532701	396.4200134277344	-254.2699890136719	-0.2560999989509441	231.3000030517578	-254.2699890136719	-0.2560999989509441	231.3000030517578	-254.2699890136719	-0.2560999989509441	231.3000030517578	-950.1600341796875	1.404999971389795	394.6300048828124	-950.1600341796875	1.404999971389795	394.6300048828124	-254.2699890136719	-0.2560999989509441	231.3000030517578	-17.23482322692871	-0.3226894736289977	0.5055502653121927	-17.23482322692871	0.3226894736289977	-0.5055502653121969	-4.938138008117676	-14.50584506988525	-2.937299728393554	-60.28800201416016	-7.0870680809021	-4.527364730834968	-19.74272918701172	-2.592303037643433	-0.6934788227081322	-36.14604568481445	2.127182960510254	-3.42121005058289	-7.984782218933106	-22.67947959899902	4.049421310424806	-68.48329162597656	-27.09671020507812	5.695458889007562	-1.12865161895752	11.08963298797607	-0.1799727380275734	11.10163974761963	20.88117027282715	3.560024499893188	7.951386796473775e-16	4.71666957359267e-32	7.702905975627584e-16	-3.18055471858951e-15	-2.385416091881692e-15	-3.97569339823689e-16	-7.075706481933594	0	-8.665241294806155e-16	6.036867141723633	0	7.393030021989678e-16	2.034230232238769	13.23128128051758	2.073814153671264	2.03423023223877	-13.23128128051758	-2.073814153671263	16.3201847076416	-7.940423488616943	-4.243433475494382	16.3201847076416	7.940423488616943	4.243433475494386	14.15821647644043	-19.3832836151123	7.68475151062012	-35.62522125244141	-1.83836062692122e-12	-4.36283131757175e-15	-3.487586975097657	94.68963623046875	6.502629280090326	18.18602561950684	-1.483557701110839	13.28201770782471	-58.02974319458008	1.762027264547161e-12	-6.311455246211269e-15	-3.148859262466431	88.93310546875	-0.8036568760871945	-0.4750401973724367	8.978400230407715	1.228738784790039	-0.4750401973724364	-8.978400230407715	-1.228738784790039	-1.707508206367493	-4.279402256011963	-0.6880351901054382	-1.707508206367493	4.279402256011963	0.6880351901054378	-5.110619651506931e-34	-0.06815250962972641	4.17313763859518e-18	-5.18940641712509e-37	-6.920316809555516e-05	4.237471914953892e-21	4.77659598679647e-35	0.006369814742356539	-3.900386617694279e-19	4.813880752839475e-34	0.06419535726308823	-3.930831939618089e-18	-1.781983376734422e-34	-0.02376358397305012	1.455099852443258e-18	1.347080177359414e-34	0.0179639458656311	-1.099974440220073e-18	nan	nan	nan	nan	nan	nan	nan	nan	nan	nan	nan	nan	1.276006037528992e-34	0.01701613888144493	-1.041938000750418e-18	1.127648111466436e-35	0.001503771636635065	-9.207945607268546e-20	9.452126599991487e-35	0.01260485406965017	-7.718247095058286e-19	-3.083097993605727e-35	-0.004111455753445625	2.517540564146577e-19	9.373418991389509e-36	0.001249989378266037	-7.653977455308459e-20	-1.198421860568799e-35	-0.001598151749931276	9.785857125525391e-20	256.7200012207031	0.07899999618532701	396.4200134277344	-254.2699890136719	-0.2560999989509441	231.3000030517578	-950.1600341796875	1.404999971389795	394.6300048828124	-0.1140409037470818	1.423613667488098	-0.01541056856513033	-0.05268745496869084	0.9954167008399963	-0.2135328054428101	0.03522664681077004	0.5902824997901917	-0.02990213781595233	0.07199586182832719	0.1648595631122589	-0.1295372098684311	0.1441923230886459	-0.01263527665287256	-0.007663555908948165	0.09406676888465881	0.03728722780942917	-0.02474315278232097	0	0	0	0	0	0	0	0	0	0	0	0	0	0	0	0	0	0	nan	nan	nan	nan	nan	nan	nan	nan	nan	nan	nan	nan	-0.06487492471933363	0.410121887922287	-0.07220301032066349	-0.1083380207419396	0.2816773056983948	0.1170332729816436	0.08725778013467789	0.1778345555067062	-0.02461259625852108	0.07636788487434386	0.1071193888783455	0.0617930106818676	-0.004058320540934798	0.05387932434678078	-0.02590757049620152	-0.02736681140959263	0.02979886904358864	0.02328007481992244	256.7200012207031	0.07899999618532701	396.4200134277344	0	0	0	-254.2699890136719	-0.2560999989509441	231.3000030517578	0	0	0	-950.1600341796875	1.404999971389795	394.6300048828124	0	0	0	31.77189445495605	0.6989005804061885	-8.029753684997555	23.59218978881835	-21.68105316162109	67.83742523193359	3.161047458648683	-0.2871333062648777	-5.828116893768311	-28.92929458618164	6.731086730957032	12.40310955047607	7.007527351379395	-0.3400181829929352	0.3759357631206521	5.878559589385986	1.70733118057251	1.243858337402344	nan	nan	nan	nan	nan	nan	nan	nan	nan	nan	nan	nan	nan	nan	nan	nan	nan	nan	3.442344188690184	0.5205832123756416	13.14793586730957	-7.45730781555176	-10.12541198730469	25.2472972869873	11.61712646484375	0.1796412318944931	-0.64304745197296	10.17896366119385	-0.1526610106229775	11.84051322937012	0.3127331733703612	1.455336540324849e-15	1.390504717826843	-2.395391225814819	3.611904631642144e-15	1.446165204048157	0	0	0	0	0	0	0	0	0	
2	0.006666666666666667	-1245.635009765625	1294.889282226562	286.5670166015623	-1370.725708007812	1287.335327148438	250.3690490722654	-1251.022338867188	1289.24072265625	400.7236022949216	-1388.9091796875	1289.1455078125	417.310363769531	-1423.960815429688	1145.384155273438	339.5560607910154	-1452.552978515625	996.5963134765625	345.731994628906	-1311.051391601562	1102.600830078125	322.0041198730466	-1284.37646484375	1047.88671875	320.0847167968748	-1439.851928710938	1072.969116210938	429.3460388183591	-1401.748046875	1118.525024414062	198.7902679443357	-1451.254272460938	924.6524047851562	163.5334625244138	-1453.686401367188	860.8098754882812	151.2373352050779	-1452.783081054688	787.6209106445312	135.1755523681638	-1427.67431640625	664.495361328125	121.4997482299803	-1362.77880859375	674.4492797851562	94.38522338867166	-1380.394775390625	617.9691772460938	68.6537628173826	-1362.979125976562	1124.160400390625	467.0660705566404	-1386.908325195312	1026.260375976562	518.8439331054685	-1409.280517578125	873.3853149414062	558.993713378906	-1343.07373046875	736.0927124023438	562.5574340820311	-1321.630737304688	700.2069702148438	563.2116699218749	-1238.336181640625	666.8534545898438	570.7916259765624	-1446.577758789062	799.97314453125	347.0800781249998	-1315.560424804688	759.8477783203125	235.1887054443357	-1314.033081054688	758.3168334960938	462.7687377929685	-1347.005493164062	561.3930053710938	203.4437866210936	-1398.661254882812	452.3993225097656	228.7513275146482	-1334.087768554688	461.7671508789062	221.8969421386717	-1390.817993164062	232.8912353515625	230.4501800537107	-1481.563354492188	155.0694274902344	258.9670104980467	-1338.63720703125	150.7320861816407	244.6416168212889	-1439.227172851562	54.27002716064455	322.7529907226561	-1290.9716796875	48.98942184448244	280.8735351562498	-1295.191772460938	554.1431884765625	492.0235900878904	-1305.542114257812	439.4143981933594	473.1652832031248	-1258.781005859375	459.0303344726563	478.8088989257811	-1387.99853515625	300.6307067871094	475.2776489257811	-1509.9765625	301.8099975585938	451.7766723632811	-1403.1162109375	204.9492645263672	458.1640319824217	-1548.67626953125	205.8399200439453	386.1008300781248	-1456.3134765625	86.46853637695315	415.4887695312498	-1412.195190429688	789.2939453125	349.8356323242185	-1407.3251953125	787.7833251953125	349.7928161621091	-1412.229370117188	789.3282470703125	344.7368469238279	-1397.087158203125	837.9937744140625	350.0619201660154	-1258.1064453125	733.46337890625	546.9759521484374	-1308.09814453125	25.66501235961915	248.4465484619139	-1480.772583007812	89.46775817871097	444.452667236328	-1357.042724609375	396.98974609375	238.7667694091795	-1252.542358398438	401.8512268066407	467.5425720214842	-1404.916625976562	56.14052581787111	275.7958679199217	-1517.231079101562	185.0250091552735	432.6122436523436	-1354.3994140625	395.0544738769531	290.909210205078	-1253.425415039062	396.7195129394531	415.0324401855467	-1387.331909179688	67.23899078369142	309.247589111328	-1497.418090820312	177.8219146728516	399.2377319335936	-1363.681030273438	549.8313598632812	202.7066497802732	-1305.667602539062	554.0716552734375	503.9752807617185	-1412.474609375	215.7911682128906	218.0477905273436	-1418.735473632812	307.6788024902344	486.5632934570311	256.7200012207031	0.07899999618532701	396.4200134277344	-254.2699890136719	-0.2560999989509441	231.3000030517578	-950.1600341796875	1.404999971389795	394.6300048828124	0	0	0	0	0	0	0	0	0	0	0	0	-1363.765502929688	700.7637939453125	297.791320800781	-1363.69970703125	699.5783081054688	399.7646179199216	-1355.156982421875	405.0709533691406	240.0831604003904	-1245.961669921875	392.8478088378907	465.188751220703	-1353.59765625	404.1672668457031	292.2973022460936	-1247.448852539062	391.6022033691406	412.4574890136717	-0.09737115353345871	1.424712538719177	-0.01633568666875372	256.7200012207031	0.07899999618532701	396.4200134277344	256.7200012207031	0.07899999618532701	396.4200134277344	256.7200012207031	0.07899999618532701	396.4200134277344	-254.2699890136719	-0.2560999989509441	231.3000030517578	-254.2699890136719	-0.2560999989509441	231.3000030517578	-254.2699890136719	-0.2560999989509441	231.3000030517578	-950.1600341796875	1.404999971389795	394.6300048828124	-950.1600341796875	1.404999971389795	394.6300048828124	-254.2699890136719	-0.2560999989509441	231.3000030517578	-17.23529815673828	-0.4814450442790985	0.2541894912719706	-17.23529815673828	0.4814450442790985	-0.2541894912719748	-5.082372188568115	-14.55991268157959	-2.871824502944946	-57.8702392578125	-7.496664524078369	-4.452331542968756	-18.99613380432129	-2.461313247680664	-0.8919817805290244	-37.2294921875	2.580804109573364	-3.205766916275029	-7.71285104751587	-22.67434692382812	4.088593482971192	-68.1612548828125	-27.32962799072266	6.376605987548822	-1.460552573204041	11.15095901489258	-0.2344610542058953	9.939176559448242	20.4559154510498	3.109610319137573	8.611725858890847e-31	-9.939233892638918e-16	-7.03200781228242e-15	9.541664367526768e-15	3.975693557055565e-15	3.180554718589511e-15	-7.406903743743896	0	-9.070840961368511e-16	4.951545238494873	0	6.063894027156064e-16	2.111432075500488	12.92924404144287	1.998475551605224	2.111432075500489	-12.92924404144287	-1.998475551605223	16.31566047668457	-7.515921592712402	-3.875998735427854	16.31566047668457	7.515921592712402	3.875998735427858	13.75297737121582	-18.62158203125	8.171856880187992	-36.07194519042969	1.78111063224573e-12	-2.827261862353202e-15	-3.896413803100587	95.14303588867188	6.740484237670891	18.21546745300293	-1.226298928260802	13.39555168151856	-57.86297225952148	4.26512384438249e-12	-7.881309056325146e-15	-3.01601243019104	88.79743194580078	-0.9186242818832455	-0.539780080318451	8.691730499267578	1.1981942653656	-0.5397800803184508	-8.691730499267578	-1.1981942653656	-1.713663816452026	-4.263332366943359	-0.6383211016654968	-1.713663816452026	4.263332366943359	0.6383211016654964	-4.16300728774566e-34	-0.05551565438508987	3.399353422263552e-18	-7.398907348996048e-36	-0.0009866789914667606	6.041666343428535e-20	4.918017252803355e-35	0.006558406632393599	-4.015865844933796e-19	4.666785148755335e-34	0.06223376840353012	-3.810719263713042e-18	-1.627884417297827e-34	-0.02170860208570957	1.329268502911389e-18	1.261076068370156e-34	0.01681704074144363	-1.029746755756979e-18	nan	nan	nan	nan	nan	nan	nan	nan	nan	nan	nan	nan	1.156270729812235e-34	0.01541941240429878	-9.441667022828749e-19	1.469903756669343e-35	0.001960185589268804	-1.200267503816404e-19	8.59508644926419e-35	0.01146195083856583	-7.01842070321698e-19	-3.406669702172905e-35	-0.004542953800410032	2.781756915173225e-19	8.607844281807054e-36	0.001147896400652826	-7.028838264061255e-20	-7.594330679401602e-36	-0.001012739608995616	6.201241602631119e-20	256.7200012207031	0.07899999618532701	396.4200134277344	-254.2699890136719	-0.2560999989509441	231.3000030517578	-950.1600341796875	1.404999971389795	394.6300048828124	-0.09737115353345871	1.424712538719177	-0.01633568666875372	-0.05457666143774983	0.9752041697502136	-0.2128019779920579	0.04339034855365754	0.5891640782356262	-0.02970482595264914	0.07458434253931047	0.1729931235313416	-0.1354728788137436	0.1441464126110077	-0.0138934375718236	-0.007458982523530703	0.09858628362417221	0.03085947781801224	-0.02685502730309963	0	0	0	0	0	0	0	0	0	0	0	0	0	0	0	0	0	0	nan	nan	nan	nan	nan	nan	nan	nan	nan	nan	nan	nan	-0.06831366568803786	0.4047823548316956	-0.06560094654560093	-0.1073854938149452	0.28937828540802	0.1157342046499252	0.08525459468364716	0.1754362434148788	-0.02195999026298523	0.08077917993068694	0.1107317879796028	0.05972695723176003	-0.004136910196393726	0.0530191957950592	-0.02449440397322178	-0.02610722742974758	0.030768021941185	0.02545308321714401	256.7200012207031	0.07899999618532701	396.4200134277344	0	0	0	-254.2699890136719	-0.2560999989509441	231.3000030517578	0	0	0	-950.1600341796875	1.404999971389795	394.6300048828124	0	0	0	25.77416229248047	0.6487774848937983	-9.454942703247067	21.01390266418456	-22.07772064208984	66.76349639892578	4.870327949523927	-0.2575972080230716	-5.538553237915038	-26.98013305664063	7.046460628509522	15.13888454437256	6.994770050048828	-0.3248289823532104	0.3868502676486977	5.923934459686279	1.792648196220398	1.317181468009949	nan	nan	nan	nan	nan	nan	nan	nan	nan	nan	nan	nan	nan	nan	nan	nan	nan	nan	2.53548502922058	0.5383840799331672	11.60239028930664	-6.872992038726809	-9.70437431335449	24.47455406188965	10.9553050994873	0.1727721244096756	-0.6772004961967455	11.24890327453613	-0.147162199020385	11.36790084838867	0.3244874775409697	-5.102779178362641e-16	1.25664758682251	-2.299301147460938	5.859172745774197e-16	1.57698905467987	0	0	0	0	0	0	0	0	0	
